<?xml version="1.0" encoding="UTF-8"?>
<svg width="93" height="81" fill="none" version="1.1" viewBox="0 0 93 81" xmlns="http://www.w3.org/2000/svg">
 <path d="m41.642 48.516h-5.9639c-0.7862-9e-4 -1.5399-0.3161-2.0959-0.8765-0.5559-0.5604-0.8687-1.3202-0.8696-2.1127v-6.0117c9e-4 -0.7925 0.3137-1.5523 0.8696-2.1127 0.556-0.5604 1.3097-0.8757 2.0959-0.8766h5.9639c0.7862 9e-4 1.54 0.3161 2.0959 0.8765 0.556 0.5604 0.8687 1.3203 0.8696 2.1128v6.0117c-9e-4 0.7925-0.3137 1.5523-0.8696 2.1127-0.556 0.5604-1.3097 0.8756-2.0959 0.8765zm-5.9639-9.4529c-0.1188 2e-4 -0.2328 0.0478-0.3169 0.1326-0.084 0.0847-0.1313 0.1996-0.1314 0.3194v6.0117c1e-4 0.1198 0.0474 0.2346 0.1315 0.3193s0.198 0.1324 0.3168 0.1325h5.9639c0.1188-1e-4 0.2328-0.0478 0.3168-0.1325 0.0841-0.0847 0.1314-0.1995 0.1315-0.3193v-6.0117c-1e-4 -0.1198-0.0474-0.2347-0.1314-0.3194-0.0841-0.0848-0.1981-0.1324-0.3169-0.1326h-5.9639z" fill="#040405"/>
 <path d="m9.4008 40.508c0.55633 0 1.0898-0.2227 1.4832-0.6193 0.3934-0.3965 0.6144-0.9344 0.6144-1.4951v-26.129c0.0024-2.1303 0.843-4.1726 2.3373-5.6789s3.5204-2.3536 5.6337-2.3561h40.728c2.1133 0.00247 4.1393 0.84981 5.6336 2.3561 1.4943 1.5063 2.3349 3.5486 2.3374 5.6789 0 0.5608 0.221 1.0986 0.6143 1.4951 0.3934 0.3966 0.927 0.6193 1.4833 0.6193s1.0898-0.2227 1.4832-0.6193c0.3934-0.3965 0.6144-0.9343 0.6144-1.4951-0.0036-3.2515-1.2866-6.3687-3.5674-8.6678-2.2809-2.2991-5.3733-3.5924-8.5988-3.5961h-40.728c-3.2256 0.0036713-6.318 1.2969-8.5988 3.5961-2.2809 2.2991-3.5638 5.4164-3.5675 8.6678v26.129c0 0.2776 0.05426 0.5526 0.15968 0.8091 0.10542 0.2566 0.25993 0.4897 0.45471 0.686 0.19478 0.1964 0.42602 0.3521 0.68052 0.4584 0.2545 0.1062 0.52726 0.1609 0.80272 0.1609z" fill="#F17B12"/>
 <path d="m64.834 19.656c-0.4037-0.0028-0.7996 0.1118-1.1404 0.33s-0.6119 0.5307-0.781 0.9003l-6.2656 14.012-5.3894-8.6132-9.7039-15.433c-0.1916-0.297-0.4531-0.5416-0.7612-0.712-0.3081-0.17042-0.6533-0.26136-1.0047-0.26471-0.3514-0.00334-0.6982 0.08099-1.0094 0.24551-0.3113 0.1645-0.5773 0.4041-0.7744 0.6974l-22.078 33.595h-8.6218v4.1094h9.7666c0.3483 0.0015 0.6915-0.0837 0.9992-0.2481 0.3077-0.1645 0.5703-0.403 0.7645-0.6945l20.895-31.795 7.9542 12.651 7.4857 11.963c0.2057 0.3213 0.493 0.5813 0.832 0.753 0.339 0.1716 0.7173 0.2487 1.0959 0.2233 0.3785-0.0255 0.7434-0.1526 1.0567-0.3681 0.3134-0.2155 0.5638-0.5117 0.7254-0.8577l7.3264-16.385h1.9634v29.552c-0.0024 2.1302-0.843 4.1726-2.3373 5.6789s-3.5204 2.3536-5.6337 2.356h-40.728c-2.1133-0.0023-4.1394-0.8496-5.6337-2.356-1.4944-1.5063-2.3349-3.5486-2.3373-5.6789v-4.7936h-4.1952v4.7936c0.00364 3.2514 1.2866 6.3687 3.5674 8.6678 2.2808 2.2991 5.3732 3.5924 8.5988 3.5961h40.728c3.2256-0.0037 6.318-1.297 8.5988-3.5961s3.5638-5.4164 3.5674-8.6678v-33.661h-7.5301z" fill="#040405"/>
 <path d="m92.007 7.1117-7.5733 2.5257c-0.1235 0.03852-0.2344 0.10983-0.3212 0.20645-0.0867 0.09662-0.1461 0.21498-0.1718 0.34268-0.0258 0.1277-0.0169 0.2601 0.0255 0.3832 0.0425 0.123 0.117 0.2323 0.2158 0.3164l1.3593 1.1646-6.7331 7.6055h-6.4439v4.1092h7.4018c0.2987 9e-4 0.5943-0.0618 0.8674-0.1839s0.5175-0.3009 0.7174-0.5247l7.3474-8.2996 1.5048 1.2902c0.099 0.0855 0.2182 0.1437 0.3461 0.1691 0.1279 0.0253 0.2601 0.017 0.3839-0.0243 0.1237-0.0413 0.2348-0.1141 0.3224-0.2114 0.0877-0.0972 0.1489-0.2156 0.1778-0.3438l0.7768-3.8434 0.7766-3.8436c0.0232-0.12911 0.0123-0.2621-0.0316-0.38562s-0.1193-0.23324-0.2185-0.31816c-0.0993-0.08491-0.2189-0.14205-0.3469-0.16566-0.1281-0.02362-0.26-0.0129-0.3827 0.03109z" fill="#F17B12"/>
 <path d="m7.3033 44.414v4.1093h-5.2058c-0.27235 0.0075-0.54341-0.0401-0.79719-0.14-0.25379-0.0999-0.48513-0.25-0.68038-0.4416-0.19525-0.1915-0.35045-0.4205-0.45642-0.6735-0.10597-0.2531-0.16057-0.5249-0.16057-0.7995s0.054599-0.5465 0.16057-0.7995c0.10597-0.253 0.26117-0.482 0.45642-0.6736 0.19525-0.1915 0.42659-0.3417 0.68038-0.4416 0.25378-0.0999 0.52484-0.1475 0.79719-0.14h5.2058z" fill="#F17B12"/>
 <g fill="#040405">
  <path d="m8.1286 81c-0.10888 0.0018-0.217-0.0185-0.31794-0.0597-0.10094-0.0411-0.19264-0.1024-0.26963-0.18-0.077-0.0776-0.13772-0.1701-0.17856-0.2718-0.04084-0.1018-0.06096-0.2108-0.05917-0.3205v-8.6294c-0.00179-0.1098 0.01833-0.2188 0.05917-0.3205 0.04084-0.1018 0.10157-0.1942 0.17857-0.2718 0.07699-0.0776 0.16869-0.1388 0.26963-0.18s0.20906-0.0615 0.31793-0.0596h3.7489c0.4263-0.0025 0.8483 0.0863 1.2379 0.2606 0.3775 0.1676 0.7194 0.4071 1.0069 0.7052 0.2874 0.3005 0.5174 0.6518 0.6785 1.0363 0.169 0.4011 0.2547 0.8329 0.2517 1.2687 0.0064 0.6267-0.1686 1.2416-0.5034 1.7697-0.3287 0.5247-0.7865 0.9547-1.3289 1.2481l1.5388 2.9186c0.0538 0.1046 0.0826 0.2205 0.0839 0.3383 1e-3 0.195-0.0744 0.3824-0.2098 0.5217-0.0675 0.0736-0.1499 0.1319-0.2416 0.1708s-0.1905 0.0576-0.29 0.0548c-0.1349 1e-3 -0.2675-0.0353-0.3834-0.1049s-0.2107-0.1698-0.2741-0.2899l-1.7205-3.2995h-2.7696v2.8622c0.00179 0.1098-0.01833 0.2188-0.05916 0.3206-0.04084 0.1017-0.10157 0.1942-0.17856 0.2718s-0.16869 0.1388-0.26963 0.18-0.20906 0.0615-0.31794 0.0597v5e-4zm0.82529-8.8832v3.7788h2.6585c0.2614 0.0035 0.5209-0.0468 0.7623-0.148 0.2204-0.0932 0.4201-0.2299 0.5874-0.402 0.1648-0.1719 0.2933-0.3757 0.3777-0.5991 0.0888-0.2317 0.1339-0.478 0.1329-0.7264 0.0013-0.2565-0.0486-0.5106-0.1468-0.7472-0.0924-0.2264-0.2279-0.4324-0.3987-0.6064-0.1709-0.1711-0.3727-0.3075-0.5946-0.4019-0.2276-0.0984-0.4728-0.1487-0.7204-0.1478h-2.6583z"/>
  <path d="m18.634 79.35h4.3784c0.1855 0 0.3634 0.0742 0.4946 0.2065 0.1311 0.1322 0.2048 0.3115 0.2048 0.4985s-0.0737 0.3663-0.2048 0.4985c-0.1312 0.1323-0.3091 0.2065-0.4946 0.2065h-6.0298v-10.054h6.0291c0.1855 0 0.3634 0.0743 0.4946 0.2065 0.1311 0.1322 0.2048 0.3115 0.2048 0.4985s-0.0737 0.3663-0.2048 0.4986c-0.1312 0.1322-0.3091 0.2065-0.4946 0.2065h-4.3777v2.7352h3.3712c0.1855 0 0.3634 0.0743 0.4946 0.2065 0.1311 0.1323 0.2048 0.3116 0.2048 0.4986s-0.0737 0.3663-0.2048 0.4985c-0.1312 0.1322-0.3091 0.2065-0.4946 0.2065h-3.3712v3.0882z"/>
  <path d="m31.769 71.299c0-0.2206 0.087-0.4322 0.2417-0.5882 0.1548-0.156 0.3647-0.2437 0.5836-0.2437s0.4288 0.0877 0.5836 0.2437c0.1547 0.156 0.2417 0.3676 0.2417 0.5882v8.5736c-9e-4 0.2989-0.1191 0.5853-0.3287 0.7967-0.2097 0.2113-0.4938 0.3305-0.7903 0.3314-0.1985 0.0018-0.394-0.0492-0.5667-0.148-0.1723-0.0985-0.3149-0.2422-0.4126-0.416l-4.0006-7.3607v7.0926c0 0.2207-0.087 0.4323-0.2417 0.5883-0.1548 0.156-0.3647 0.2436-0.5836 0.2436s-0.4288-0.0876-0.5836-0.2436c-0.1547-0.156-0.2417-0.3676-0.2417-0.5883v-8.5593c-0.0031-0.1506 0.0245-0.3003 0.081-0.4398 0.0566-0.1394 0.1409-0.2657 0.2478-0.371 0.1022-0.1068 0.2251-0.1913 0.361-0.2483s0.282-0.0853 0.4292-0.0832c0.2039-0.0027 0.4047 0.0509 0.5806 0.1551 0.1715 0.1026 0.3137 0.2483 0.4126 0.4229l3.9867 7.3182v-7.0642z"/>
  <path d="m35.643 71.539c-0.0017-0.1098 0.0184-0.2188 0.0593-0.3205 0.0408-0.1018 0.1016-0.1942 0.1786-0.2718s0.1687-0.1388 0.2696-0.18c0.101-0.0412 0.2091-0.0615 0.318-0.0596h3.0914c0.6501-0.0045 1.2937 0.13 1.8884 0.3948 0.5771 0.256 1.0996 0.6222 1.5386 1.0785 0.9101 0.9555 1.4184 2.2288 1.4184 3.5534s-0.5083 2.5979-1.4184 3.5534c-0.4389 0.4564-0.9614 0.8228-1.5386 1.0787-0.5947 0.2648-1.2383 0.3994-1.8884 0.3948h-3.0909c-0.1089 0.0018-0.217-0.0185-0.3179-0.0597s-0.1926-0.1024-0.2696-0.18-0.1378-0.17-0.1786-0.2717c-0.0409-0.1018-0.0611-0.2107-0.0594-0.3205l-5e-4 -8.3898zm1.6508 7.8257h1.9862c0.4721 0.0027 0.9395-0.0958 1.371-0.2889 0.8534-0.3777 1.5298-1.072 1.889-1.9389 0.1874-0.446 0.2825-0.9258 0.2798-1.4101 0.0031-0.4819-0.0921-0.9593-0.2798-1.4025-0.1804-0.4278-0.439-0.8177-0.7623-1.1492-0.3223-0.3293-0.7046-0.5927-1.126-0.7756-0.4328-0.1886-0.8996-0.2845-1.371-0.2818h-1.9864l-5e-4 7.247z"/>
 </g>
 <g fill="#F17B12">
  <path d="m47.114 81c-0.1088 0.0018-0.217-0.0185-0.3179-0.0597-0.101-0.0411-0.1926-0.1024-0.2696-0.18s-0.1378-0.1701-0.1786-0.2718c-0.0408-0.1018-0.061-0.2108-0.0592-0.3205v-8.6294c-0.0018-0.1098 0.0184-0.2188 0.0592-0.3205 0.0409-0.1018 0.1016-0.1942 0.1786-0.2718s0.1687-0.1388 0.2696-0.18 0.2091-0.0615 0.3179-0.0596h2.7417c0.4217-0.0015 0.839 0.0873 1.224 0.2606 0.3775 0.1677 0.7194 0.4071 1.0069 0.7052 0.2895 0.3041 0.5197 0.6604 0.6785 1.0504 0.3356 0.8219 0.3356 1.7442 0 2.5662-0.1587 0.3901-0.3889 0.7466-0.6785 1.0507-0.2875 0.2981-0.6294 0.5375-1.0069 0.705-0.385 0.1735-0.8022 0.2624-1.224 0.2608h-1.9164v2.8624c0.0018 0.1097-0.0183 0.2187-0.0591 0.3205-0.0409 0.1017-0.1016 0.1942-0.1786 0.2718s-0.1687 0.1389-0.2696 0.18c-0.101 0.0412-0.2091 0.0615-0.318 0.0597zm0.8253-8.8832v3.7788h1.5942c0.2477 8e-4 0.4929-0.0496 0.7204-0.148 0.4533-0.1943 0.8142-0.5581 1.0069-1.015 0.0986-0.2341 0.1486-0.4861 0.1468-0.7404 0.0022-0.2521-0.0478-0.5018-0.1468-0.7333-0.0957-0.2221-0.2336-0.4232-0.4058-0.592-0.1742-0.1702-0.3781-0.3065-0.6014-0.402-0.2276-0.0983-0.4728-0.1487-0.7204-0.1478l-1.5939-3e-4z"/>
  <path d="m55.717 81c-0.1089 0.0018-0.2171-0.0185-0.318-0.0596-0.101-0.0412-0.1927-0.1024-0.2697-0.1801-0.077-0.0776-0.1377-0.17-0.1786-0.2718-0.0408-0.1018-0.061-0.2108-0.0592-0.3206v-8.6293c-0.0018-0.1098 0.0184-0.2188 0.0592-0.3205 0.0409-0.1018 0.1016-0.1943 0.1786-0.2719s0.1687-0.1388 0.2697-0.18c0.1009-0.0411 0.2091-0.0614 0.318-0.0595h3.7487c0.4264-0.0025 0.8484 0.0863 1.2381 0.2606 0.3775 0.1676 0.7194 0.4071 1.0069 0.7052 0.2874 0.3005 0.5174 0.6518 0.6784 1.0363 0.1691 0.4011 0.2547 0.8329 0.2517 1.2687 0.0064 0.6267-0.1685 1.2416-0.5034 1.7697-0.3287 0.5246-0.7865 0.9546-1.3289 1.248l1.5387 2.9187c0.0539 0.1045 0.0826 0.2204 0.0839 0.3383 1e-3 0.195-0.0744 0.3824-0.2098 0.5217-0.0675 0.0736-0.1499 0.1319-0.2416 0.1708s-0.1906 0.0576-0.29 0.0548c-0.1349 1e-3 -0.2675-0.0353-0.3834-0.1049s-0.2107-0.1699-0.2741-0.2899l-1.7206-3.2996h-2.7688v2.8623c0.0017 0.1098-0.0184 0.2188-0.0593 0.3205-0.0408 0.1017-0.1016 0.1941-0.1786 0.2718-0.0769 0.0776-0.1686 0.1388-0.2695 0.18-0.101 0.0412-0.209 0.0616-0.3179 0.0598l-5e-4 5e-4zm0.8253-8.8832v3.7788h2.6577c0.2615 0.0035 0.521-0.0469 0.7624-0.1481 0.2204-0.0931 0.4201-0.2298 0.5874-0.4019 0.1648-0.1719 0.2933-0.3757 0.3777-0.5991 0.0889-0.2317 0.1339-0.478 0.1329-0.7264 0.0013-0.2565-0.0487-0.5106-0.1468-0.7472-0.0923-0.2264-0.2278-0.4324-0.3987-0.6064-0.1709-0.1711-0.3727-0.3076-0.5946-0.4019-0.2275-0.0984-0.4727-0.1487-0.7203-0.1478h-2.6577z"/>
  <path d="m72.363 75.74c0.0097 0.7382-0.1063 1.4727-0.3429 2.1714-0.206 0.6102-0.5293 1.1735-0.9513 1.6578-0.3966 0.4495-0.8826 0.8098-1.4264 1.0575-0.5517 0.2504-1.1504 0.3778-1.7554 0.3737-0.5987 0.0077-1.1915-0.12-1.7347-0.3737-0.5201-0.2473-0.9787-0.6086-1.3425-1.0575-0.3924-0.4922-0.689-1.0547-0.8743-1.6578-0.4195-1.412-0.4195-2.9169 0-4.3289 0.187-0.6057 0.486-1.1702 0.8812-1.6638 0.3713-0.4619 0.842-0.8327 1.3763-1.0843 0.5344-0.2516 1.1185-0.3775 1.7082-0.3681 0.6058-0.0041 1.2051 0.1258 1.7557 0.3806 0.5429 0.2522 1.0268 0.6175 1.4196 1.0718 0.417 0.4889 0.7375 1.0536 0.9443 1.6638 0.2356 0.6941 0.3513 1.4239 0.3422 2.1575zm-4.3646 3.8637c0.444 0.0119 0.881-0.1136 1.252-0.3598 0.3506-0.2405 0.6443-0.5557 0.8604-0.9235 0.2284-0.3877 0.3959-0.8087 0.4965-1.248 0.1049-0.4363 0.1589-0.8835 0.161-1.3324-1e-3 -0.4584-0.055-0.915-0.161-1.3608-0.1002-0.4383-0.2702-0.8574-0.5034-1.2409-0.2218-0.364-0.5203-0.6745-0.8743-0.9094-0.3755-0.2409-0.8136-0.3636-1.2586-0.3525-0.443-0.0119-0.8793 0.1109-1.252 0.3525-0.3486 0.2339-0.6422 0.542-0.8602 0.9025-0.2289 0.3791-0.3944 0.7936-0.4897 1.2269-0.2075 0.8881-0.2051 1.813 0.0071 2.7001 0.0988 0.4443 0.2663 0.8702 0.4965 1.262 0.2161 0.3677 0.5098 0.683 0.8602 0.9235 0.3755 0.2473 0.8171 0.3729 1.2655 0.3598z"/>
 </g>
</svg>
